<svg xmlns="http://www.w3.org/2000/svg" width="3000" height="700"><style><![CDATA[.A{fill:#4cbe4b}.C{fill:#4cba49}.D{fill:#4cb949}.E{fill:#45af45}.F{fill:#46b641}]]></style><path class="A" d="M0 0h3000v700H0z"/><path d="M958.4 339.92c-.48 8.67-.9 25.83-1.28 49l-1.54 180.88-.17 43.9-.2 86.3h16l.2-130.52-.6-197.42-.6-33.64 5.9 1.63c26.7 6.75 54.18 5.9 65.08 6.32-4.13-14.65-38.84-28.24-47-30.47 16.58-13.15 41.6-38.92 47-56.06-31.6-1.9-55.8 18.56-70.08 37.6 4.54-19.95 5.86-45-6-59-2.4 3.83-5.62 12.3-8.4 22.66a177.71 177.71 0 0 0-5.09 27.16c-7-9.34-15.9-18.45-26.6-25.15a66.85 66.85 0 0 0-37.46-10.62 69.74 69.74 0 0 0 7.77 18.51 141.2 141.2 0 0 0 14.4 20.45c-13.8-3.3-27.4-3.9-37.18 1.26 5.83 5.67 28.75 18 51.4 25.2-20.8 1.7-43.07 7.3-52.64 20.4 7.15 2.35 30 3.38 52 .75-16 7.73-31.5 19.17-35.63 33.82 11.87-.47 53.76-14.16 70.7-32.94zM1893 7.74c-22.1.82-37.48 14-32.78 23.47 3.08 6.2 43.9.76 50-10.08L1873.83 700h7.07l40.72-677.6c1.74 16.66 51.55 16.18 55.87 12.47 17.85-15.35-29.3-26.42-40.63-27.84 3.1-.1 29.83.54 40.6-7h-122.9c6.22 7.12 24.84 7.8 38.43 7.72z" fill="#4dba4a"/><path class="C" d="M0 370v330h133.2c17.07-24.84 33.34-50.26 48.6-76.23q11.23-19.1 21.7-38.62c31.37-58.48 57.22-119.45 75.17-182.3l1.26-4.46 1.4-5.08c3.7.1 7.5.12 11.4 0 36-.94 80.4-10.9 121.92-26.84 40.65-15.6 78.55-37 103.08-61.14 15.3-15.1 32.63-80 49.23-167.77C574.83 95.9 582.55 49.1 589.8 0h-53.24c-9.1 47.76-19.12 92.37-30.18 130.4-12.8 44-27 79.25-42.73 100.33-11.2 15-35.38 27.92-62 37.18-29.6 10.3-62.2 16-83.12 15-6.18-.3-11.34-1.22-15.12-2.77 7.82-33.6 18.5-92.83 28.35-153.8L350.55 0h-190.8c-10.75 59.5-22.68 114.76-35.8 160.94-13.8 48.5-28.87 87-45.15 109.74C60.16 296.73 32.85 331.17 0 370z"/><path class="D" d="M2411.35 154.26c7.78 9.88 29.4 9.55 49.78 8.14-41.46 6-50.57 33.76-44.94 41.5 6.25 8.6 17.34 10.78 26.86 5s25.3-24.83 38.72-34.35c-13.1 10.3-49.5 64-24.82 72 22 7.1 44.83-58.58 53.1-75.76V700h9.8V177.33c4.26 25.34 17.4 82.24 46.56 66.36 33.82-18.4-11.43-52.55-19.6-61.75 23.18 9.58 37 37.28 57 13.24 23.1-27.77-47.4-37.65-64.88-38.74 5.34-.53 57.06-2.46 66.26-20.17 1.8-3.5 2-7.62-.22-12.46-12.57-27.8-60.56 1.8-77.55 16-1 .8-1.8 1.55-2.54 2.23.6-.63 1.2-1.36 1.84-2.17 13.58-17.13 38.43-71.57 11.6-79.17-28.1-8-32.63 46.2-33.57 65.1.94-27.16-22.48-71.66-43.1-57.45-20 13.78 18.2 61.2 28.9 75l.9 1.18-1.82-1.07c-25.3-14.5-77.72-27.5-81.08-1.58-.72 5.3.36 9.33 2.77 12.38z"/><path class="E" d="M988 700h71.24c4-6.72 6-13.32 4.1-15.94-3.55-4.77-23 .05-33.46 9.05q-.08-6.7-.1-13.3c15.58 9.8 38.77-25.48 33.8-32.47-3.48-4.8-23.13.1-33.76 9.16q0-6.8.13-13.5c15.4 10.15 39.4-25.34 34.52-32.35-3.4-4.82-23.4.16-34.13 9.34q.15-7 .33-13.85c15.2 10.68 40.12-25.13 35.35-32.16-3.36-4.87-23.82.26-34.63 9.6q.25-7.32.55-14.4c15 11.52 41-24.77 36.28-31.85-3.32-4.93-24.43.4-35.3 10q.4-7.8.8-15.2c14.62 12.77 42-24.24 37.36-31.4-3.3-5-25.35.64-36.16 10.62q.52-8.58 1.06-16.47c14.16 14.64 43.17-23.42 38.62-30.67-3.3-5.17-26.7 1-37.3 11.5l1.34-18.5c13.43 17.6 44.68-22.06 40.15-29.47-3.37-5.4-29 1.6-39 13 .93-13.55 1.23-20.95.34-20.9-.67 0-2.4 7.08-4.64 20-8.06-10.24-30.77-15.26-35.4-9.78-6.5 7.6 15.25 44.22 32.48 28.32l-2.25 16.58c-9.08-9.33-30-13.68-34.37-8.44-6.2 7.44 15.07 42.7 31.86 29.37q-.8 7.15-1.58 14.87c-8.4-7.74-24.83-11.76-31.54-9.2a5.2 5.2 0 0 0-2.21 1.49c-2.06 2.52-.9 8.24 2.16 14.2 5.86 11.34 18.7 23.5 29.5 15.78q-.6 6.75-1.15 13.84c-7.65-6.54-20.9-10.26-28.42-9.35-2.25.27-4 1-4.9 2.12-2.47 3.1 0 11 4.82 18.2 6.55 9.75 17.52 18.3 26.82 12.18q-.42 6.45-.8 13.12c-7.14-5.77-18.56-9.25-26.1-9.12-3.24 0-5.76.76-6.9 2.25-2.66 3.43.76 12.7 6.8 20.48 6.7 8.6 16.6 15.36 25 10.2q-.27 6.2-.5 12.58c-6.83-5.27-17.18-8.57-24.55-8.84-3.9-.15-7 .55-8.22 2.25-2.73 3.6 1.35 13.62 8.08 21.6s16.07 13.88 23.94 9.3q-.15 6-.25 12.2a48.33 48.33 0 0 0-23.78-8.6c-4.2-.26-7.54.42-8.84 2.2-2.7 3.63 1.67 13.83 8.66 21.84 6.78 7.8 16 13.52 23.7 9.18q0 6 0 12a49.43 49.43 0 0 0-23.82-8.5c-4.2-.24-7.47.44-8.74 2.22-1.74 2.5-.27 7.9 3.02 13.6z"/><path class="D" d="M1516.94 286.06c-1.27 22.77-2.24 74.36-2.9 136.7l-.84 119.08v6.46l-.24 124v27.72h19.73l.5-76.42v-4.16l.3-93.47-.06-106.17-1.43-135.6c22.1 23.18 73.62 39.95 88.43 40.54-5.22-18.54-24.77-33-45-42.8 27 6.25 54.36 8.33 63.17 5.45-9.2-28.22-36.2-39.07-62.5-41.88 21-16.65 38.9-39.12 45.8-60.8-40-2.4-70.66 23.48-88.74 47.6 5.75-25.26 7.4-57-7.55-74.75-5.44 8.73-14.36 36.47-17.07 63.08-17.7-23.65-45.08-46.15-81.1-45.3 3.24 14.48 13.9 32.63 28 49.37-17.5-4.2-34.7-4.93-47.1 1.6 7.38 7.18 36.4 22.78 65.08 31.9-26.34 2.17-54.54 9.24-66.65 25.83 9.06 3 38 4.27 65.8.95-20.3 9.78-39.87 24.26-45.1 42.82 14.98-.62 68-17.96 89.46-41.74z"/><path class="C" d="M2204.48 700H2280q.54-13.32 1.2-28.28l1.86-42.7 18.88-362.42 4.47-72.6q.72-11.46 1.46-22.95 1.8-27.84 3.7-55.72l8.27-115.3h-43.43l-18.68 178q-2.28 22-4.57 43.82l-7.9 75.8q-1.27 12.35-2.54 24.57l-30.22 295.4-4.37 44.32q-.36 3.57-.7 7.05-1.56 16.07-2.92 30.28c.02.25 0 .5-.02.74z"/><path class="D" d="M1778.4 535.44l12.88-2.46-11.7 4.48 12.9 22.08 47.2 6.76-34.16 15.6 20.07 34.4 36.8-7.1-30.53 17.8 20.16 34.6 21.26-4.34-5.86 2.7-12.87 5.95 19.9 34.1H1953l.27-1.77a199.76 199.76 0 0 0 1.94-32.72q-.06-3.37-.25-6.87l-.37-6a48.67 48.67 0 0 0-2.63-12.26c-8.15-23.55-33.53-47.2-63.36-67.76l-5.23-3.53q-1.18-.8-2.4-1.6c-45.7-30-99-52.4-116.77-56.5z"/><path class="D" d="M1949.24 697l-.13 3h73.48l5.16-140.46q.3-7.46.58-15 1-25.57 2.1-51.94l8.23-184.34q1.23-25.32 2.52-50.54c0-1 .1-2.07.16-3.1l3.88-72.48 4.67-79.6L2056.78 0h-44.3l-14.88 147.85q-1.47 14.55-2.9 28.94-1 10.1-2 20.1l-6.9 68.33q-2 20.3-4 40l-16.7 164.36c-11.5-5.22-20.26-8.74-26.35-13.42-7.13 3.45-9.16 9.17-9.4 18 6.6 15.55 31.6 36.24 31.15 40.85v.2c-2.5 24.76-4.78 57.45-6.85 93.48l-.37 6.45q-.7 12.4-1.35 25.23-.45 8.67-.87 17.47-.16 3.27-.32 6.55l-1.5 32.62zM3000 0h-330.56c26.75 31.6 49.1 50.5 59.35 55.5.3 7.1 2.93 38.67 7.06 85.17l14.82 162 14.57 153.3q1 10.6 2.05 21.15 1.07 10.88 2.1 21.68l17.8 176.5q1.33 12.78 2.62 24.67H3000z"/><path class="C" d="M1604.82 700h103.32c11.94-106 47.53-324.28 89-552.62l24.82-134.06 2.52-13.35H1725l-20.76 133.26-75.72 450.68-23.7 116.1zM1128.2 169.6l-2.3 530.4h222.6c-.6-48.6 1.3-100.82 4.52-152 9.58-152.33 31-295.66 33.7-307.56-5.1-6.37-23.7-24.7-32-31-5.74 13.38-24.28 53.83-44.37 71.56-.92-5.23-3.34-62.66-6.4-144.76L1299 .06h-171.15l.35 169.53z"/><path class="F" d="M2430 479.64l52.5 16.55-45.68 4.47c12.62 35.18 32.5 74.3 58.7 112.4l86.6-16.13-52 21.15-24.1 9.78a531.25 531.25 0 0 0 24.1 30.4q4.8 5.64 9.8 11.2c9.5 10.53 19.5 20.76 30 30.54h315.64c-20.06-79.12-63.43-147.22-116.07-201.17A523.29 523.29 0 0 0 2652 408.5l11.22 42.23-12-19.48-.22-.25-21-34.1a408.09 408.09 0 0 0-50.91-21.11 305.44 305.44 0 0 0-39.22-10.42q-5-1-9.8-1.7l-5.93-.82 19.03 43.85-3.3-3.64-37.67-41.72c-30.9-.33-55.94 7.9-70.92 25.62a35.34 35.34 0 0 0-3.55 5.11l47.08 36.33-52.1-22.5c-3.97 18.3-1.32 44.1 7.3 73.73z"/><path class="A" d="M2551.2 485.8L2770.34 700h47.56l-266.7-214.2z"/><path class="E" d="M2579.1 375.8q.57 9.13 1.6 18.72l70.87 36.78h-.4l-66-5c6 34.4 15.8 71.93 29.53 110.57q3.06 8.63 6.4 17.32c6 15.7 12.6 31.52 19.86 47.36l127.76-1.42-116.43 25.2a781.58 781.58 0 0 0 42.4 74.68H3000V429a747 747 0 0 0-84.28-80.69l5.48 63.15-34-85.22c-48.27-35.27-97-60.82-141.28-74.6l-1.5-.47 16.25 67.4-47.2-75.04c-44.1-8.2-81.9-2.68-107.74 18.9a49.94 49.94 0 0 0-6.34 6.41l58.2 63.68-68.84-45.18c-8.76 21.57-11.97 52.15-9.67 88.47z"/><path class="A" d="M2688.97 372.2L2933.62 700h53.75l-298.4-327.8z"/><path class="E" d="M1257.6 700h362.94a638.66 638.66 0 0 0 7.94-116.06q-.35-12.48-1.24-24.3l-54.36 18.15 51.43-45.6c-5.34-38.2-15.42-68.92-29.26-87.78l-48 52.2 35.2-65.4a43.27 43.27 0 0 0-6.64-4c-12.67-6.1-26.92-8.46-42.24-7.42a118.93 118.93 0 0 0-17.44 2.54l-1.93.44a161.73 161.73 0 0 0-23 7.33c-3.08 1.22-6.18 2.56-9.3 4l-23.62 72.57-.6-59.7c-34.42 20.8-70.15 52.65-103.4 92.7L1353 548l-9.34 69.95-8.66-53.9A651.52 651.52 0 0 0 1257.61 700z"/><path class="A" d="M1428.44 700h21.54l75.07-180.37-96.6 180.37z"/><path class="F" d="M0 621.47V700h202.47l-31.54-51.74 16.5 16.74L220 698l115.9-56.2-49.6-102.4 85.55 85 115.33-55.93-63.34-102.96 138.26 66.6 74-35.87-23.23-33 30 29.65 81.85-39.7c-54.25-20.7-193.06-56.9-330-60.67a736.75 736.75 0 0 0-80 1.91c-11.8 1-23.44 2.25-34.88 3.92q-6.06.87-12 1.9c-69.38 11.8-130 37.8-167.8 85.8A2839.76 2839.76 0 0 0 0 621.47z"/><path class="E" d="M0 427.47V700h85.2l-61.5-48 104.37 48h32.7l44.6-58.58L77 545.3l162.55 51.2L370.3 424.73 223.65 389.7l166.7 8.7 48.86-64.2-59.13-8.9 67.33-1.84 52.38-68.84-98.1 13.27c-25.52 3.86-53.6 8.68-83.12 15C214.4 305.1 92.14 345.7 0 427.47zM671.13 616.4l73.25 83.6h102.87l93.53-87.94a3.48 3.48 0 0 0-3.65-5.77l-69.94 27.4a3.47 3.47 0 0 1-4.42-4.69l32.94-71.26a3.48 3.48 0 0 0-5.63-3.9L844.55 600a3.48 3.48 0 0 1-5.9-3l12.76-71.07a3.47 3.47 0 0 0-6.41-2.43l-31.8 52.64a3.47 3.47 0 0 1-6.43-1.44l-7-69.64a3.48 3.48 0 0 0-6.91-.06l-8.53 71.3a3.47 3.47 0 0 1-6.57 1.11l-26-53.36a3.48 3.48 0 0 0-6.58 1.91l7.33 64.92a3.48 3.48 0 0 1-6 2.78L705.1 550a3.48 3.48 0 0 0-5.73 3.73l31.36 75.13a3.47 3.47 0 0 1-4.6 4.52l-51-22.43a3.48 3.48 0 0 0-4 5.44zm1194.74 42.36l1.54 1.2q3.66 2.77 8.26 5.62 3.3 2.05 7 4.13c17 9.45 40.53 19.1 66.52 27.27l4 1.25q2.94.9 5.9 1.77h242.6l2.82-.74c28.87-7.75 56.83-17.33 76.68-27.54 18.9-9.7 30.42-20 28.36-29.8-1.38-6.5-11.3-10.72-26.5-12.92a227.41 227.41 0 0 0-34.05-1.81c24.26-22.42 38.43-43.58 31.16-55.72-5.5-9.17-30-5.54-60.88 5.4 15.58-29 22-53.55 11.24-62.64-1.8-1.52-4.27-2.15-7.3-2-10.92.56-29.1 11.34-49.54 27.7 5.3-32.6 3.44-58-9.76-63.1-11.06-4.25-30.8 18.25-50.4 51.1-8-40.2-21.3-70.6-37.67-69.93-11.47.5-20.42 27.27-25.4 63.44a222.8 222.8 0 0 0-20-28.89c-12.45-14.88-24.37-22.8-33.78-19.3-10.14 3.8-10.9 29.13-5.5 62.15-11-8.76-21.42-15.76-30.67-20.22-12.52-6-22.8-7.42-29.08-2.24-8.25 6.8-1 30.45 14.44 59.38-24.6-8.77-45.53-12.3-56.83-7.37a15 15 0 0 0-5.69 4.11 12.9 12.9 0 0 0-1.1 1.53c-2.76 4.5-.6 11.7 5.2 20.5 6.08 9.23 16.16 20.25 28.74 31.86a188.08 188.08 0 0 0-30.76 1.87q-4.05.63-7.65 1.5c-12.57 3-20.82 8.15-22.5 15.74-1.05 4.8 2.9 10.55 10.6 16.68z"/><path d="M2085.3 700h4.94c.87-51.34-6.8-199.17-10.9-199-3.1.13 1.02 147.72 5.95 199zm-187.6-50.33c-.34 1.54 37 11.14 80.4 21.28-5.32-3.5-10.58-7.13-15.75-10.8-35.86-7.28-64.25-12.23-64.64-10.47zm22.17-58.03c-.82 1.34 31 22.36 68.44 45.93-3.84-5-7.6-10.12-11.24-15.25-31.3-18.43-56.26-32.2-57.2-30.68zm266.86 82.02c43.76-9.7 81.52-19.08 81.1-21.13-.28-1.33-28.6 3.43-64.43 10.32-5.45 3.7-11.02 7.32-16.66 10.8zm1.4-48.66q-5.86 7.85-12.1 15.5c37.46-23 69.1-43.58 68-45.35-.64-1.16-25.03 12.06-55.9 29.84zm-34.92-10.1c28.5-34.58 52.47-65.24 50.87-66.6-1-.88-20.4 20.3-44.38 47.8a469.54 469.54 0 0 1-6.5 18.8zm-142.82-3.5a584.19 584.19 0 0 1-5.75-18.22c-23.77-27.83-43.1-49.23-44.5-48.08-1.17 1 22.3 31.58 50.24 66.3zm110.33-26.8a485.08 485.08 0 0 1 .85 18.18c16.6-44.24 30.5-84.3 28.46-85.1-1.36-.52-14.33 29.7-29.3 66.9zm-74.27 27.24a528.01 528.01 0 0 1-.48-22.94c-16-41.33-30.65-76.6-32.6-75.87-1.7.64 14.92 49.3 33.07 98.8z" fill="#4cbf4b"/></svg>